<?xml version="1.0" encoding="UTF-8"?>
<svg id="Capa_2" data-name="Capa 2" xmlns="http://www.w3.org/2000/svg" xmlns:xlink="http://www.w3.org/1999/xlink" viewBox="0 0 821.75 821.75">
  <defs>
    <style>
      .cls-1 {
        fill: #ff5c54;
      }

      .cls-2 {
        fill: gray;
      }

      .cls-3 {
        stroke: #ff5c54;
        stroke-width: 2px;
      }

      .cls-3, .cls-4, .cls-5, .cls-6, .cls-7 {
        stroke-miterlimit: 10;
      }

      .cls-3, .cls-5, .cls-6, .cls-7 {
        fill: none;
      }

      .cls-4 {
        fill: url(#Degradado_sin_nombre_36);
        stroke: #1c7270;
      }

      .cls-4, .cls-6 {
        stroke-width: 6px;
      }

      .cls-8 {
        fill: #666;
      }

      .cls-5 {
        opacity: .45;
        stroke: #000;
        stroke-width: 3px;
      }

      .cls-5, .cls-6 {
        stroke-linecap: round;
      }

      .cls-6 {
        stroke: #1c7270;
      }

      .cls-9 {
        fill: red;
      }

      .cls-10 {
        fill: #c3ff73;
      }

      .cls-11 {
        fill: #ffbd5e;
      }

      .cls-12 {
        fill: #018001;
      }

      .cls-7 {
        stroke: #999;
      }

      .cls-13 {
        fill: #999;
      }
    </style>
    <radialGradient id="Degradado_sin_nombre_36" data-name="Degradado sin nombre 36" cx="288.52" cy="215.24" fx="300.52" fy="224.02" r="497.73" gradientUnits="userSpaceOnUse">
      <stop offset=".1" stop-color="#fff"/>
      <stop offset=".15" stop-color="#fafafa"/>
      <stop offset=".42" stop-color="#e8e8e8"/>
      <stop offset=".7" stop-color="#dcdcdc"/>
      <stop offset="1" stop-color="#d9d9d9"/>
    </radialGradient>
  </defs>
  <g id="Capa_1-2" data-name="Capa 1">
    <g>
      <circle class="cls-4" cx="410.87" cy="410.87" r="407.87"/>
      <g>
        <line class="cls-7" x1="139.01" y1="568.16" x2="116.37" y2="581.24"/>
        <line class="cls-7" x1="130.2" y1="551.77" x2="106.82" y2="563.48"/>
        <line class="cls-7" x1="122.33" y1="534.81" x2="98.3" y2="545.11"/>
        <line class="cls-7" x1="115.47" y1="517.32" x2="90.86" y2="526.17"/>
        <line class="cls-7" x1="109.62" y1="499.35" x2="84.53" y2="506.69"/>
        <line class="cls-7" x1="104.85" y1="480.91" x2="79.35" y2="486.71"/>
        <line class="cls-7" x1="101.17" y1="462.05" x2="75.37" y2="466.29"/>
        <line class="cls-7" x1="98.63" y1="442.81" x2="72.61" y2="445.45"/>
        <line class="cls-7" x1="97.26" y1="423.21" x2="71.13" y2="424.25"/>
        <line class="cls-7" x1="97.1" y1="403.25" x2="70.96" y2="402.66"/>
        <line class="cls-3" x1="98.18" y1="383.33" x2="72.12" y2="381.11"/>
        <line class="cls-7" x1="100.46" y1="363.76" x2="74.6" y2="359.93"/>
        <line class="cls-7" x1="103.92" y1="344.59" x2="78.35" y2="339.16"/>
        <line class="cls-7" x1="108.52" y1="325.84" x2="83.32" y2="318.85"/>
        <line class="cls-7" x1="114.21" y1="307.55" x2="89.49" y2="299.03"/>
        <line class="cls-7" x1="120.96" y1="289.75" x2="96.8" y2="279.75"/>
        <line class="cls-7" x1="128.73" y1="272.49" x2="105.22" y2="261.05"/>
        <line class="cls-7" x1="137.49" y1="255.8" x2="114.71" y2="242.97"/>
        <line class="cls-7" x1="147.2" y1="239.72" x2="125.22" y2="225.55"/>
        <line class="cls-7" x1="157.82" y1="224.28" x2="136.72" y2="208.83"/>
        <line class="cls-3" x1="169.32" y1="209.52" x2="149.17" y2="192.86"/>
        <line class="cls-7" x1="181.65" y1="195.49" x2="162.52" y2="177.66"/>
        <line class="cls-7" x1="194.78" y1="182.21" x2="176.73" y2="163.29"/>
        <line class="cls-7" x1="208.67" y1="169.73" x2="191.77" y2="149.78"/>
        <line class="cls-7" x1="223.28" y1="158.09" x2="207.6" y2="137.17"/>
        <line class="cls-7" x1="238.58" y1="147.31" x2="224.17" y2="125.5"/>
        <line class="cls-7" x1="254.53" y1="137.45" x2="241.44" y2="114.82"/>
        <line class="cls-7" x1="271.08" y1="128.54" x2="259.38" y2="105.16"/>
        <line class="cls-7" x1="288.21" y1="120.61" x2="277.95" y2="96.56"/>
        <line class="cls-7" x1="305.87" y1="113.7" x2="297.09" y2="89.07"/>
        <line class="cls-3" x1="324.04" y1="107.85" x2="316.79" y2="82.73"/>
        <line class="cls-7" x1="342.66" y1="103.09" x2="336.98" y2="77.57"/>
        <line class="cls-7" x1="361.71" y1="99.47" x2="357.63" y2="73.65"/>
        <line class="cls-7" x1="381.16" y1="97.02" x2="378.7" y2="70.99"/>
        <line class="cls-7" x1="400.96" y1="95.77" x2="400.13" y2="69.64"/>
        <line class="cls-7" x1="421" y1="95.77" x2="421.83" y2="69.64"/>
        <line class="cls-7" x1="440.8" y1="97.02" x2="443.27" y2="70.99"/>
        <line class="cls-7" x1="460.25" y1="99.47" x2="464.33" y2="73.65"/>
        <line class="cls-7" x1="479.3" y1="103.09" x2="484.98" y2="77.57"/>
        <line class="cls-3" x1="497.92" y1="107.85" x2="505.18" y2="82.73"/>
        <line class="cls-7" x1="516.09" y1="113.7" x2="524.87" y2="89.07"/>
        <line class="cls-7" x1="533.75" y1="120.61" x2="544.01" y2="96.56"/>
        <line class="cls-7" x1="550.88" y1="128.54" x2="562.58" y2="105.16"/>
        <line class="cls-7" x1="567.43" y1="137.45" x2="580.52" y2="114.82"/>
        <line class="cls-7" x1="583.38" y1="147.31" x2="597.79" y2="125.5"/>
        <line class="cls-7" x1="598.68" y1="158.09" x2="614.36" y2="137.17"/>
        <line class="cls-7" x1="613.29" y1="169.73" x2="630.19" y2="149.78"/>
        <line class="cls-7" x1="627.18" y1="182.21" x2="645.23" y2="163.29"/>
        <line class="cls-7" x1="640.31" y1="195.49" x2="659.44" y2="177.66"/>
        <line class="cls-3" x1="652.64" y1="209.52" x2="672.79" y2="192.86"/>
        <line class="cls-7" x1="664.14" y1="224.28" x2="685.24" y2="208.83"/>
        <line class="cls-7" x1="674.76" y1="239.72" x2="696.74" y2="225.55"/>
        <line class="cls-7" x1="684.47" y1="255.8" x2="707.25" y2="242.97"/>
        <line class="cls-7" x1="693.23" y1="272.49" x2="716.74" y2="261.05"/>
        <line class="cls-7" x1="701" y1="289.75" x2="725.16" y2="279.75"/>
        <line class="cls-7" x1="707.75" y1="307.55" x2="732.47" y2="299.03"/>
        <line class="cls-7" x1="713.44" y1="325.84" x2="738.64" y2="318.85"/>
        <line class="cls-7" x1="718.04" y1="344.59" x2="743.61" y2="339.16"/>
        <line class="cls-7" x1="721.5" y1="363.76" x2="747.36" y2="359.93"/>
        <line class="cls-3" x1="723.78" y1="383.33" x2="749.84" y2="381.11"/>
        <line class="cls-7" x1="724.86" y1="403.25" x2="751" y2="402.66"/>
        <line class="cls-7" x1="724.7" y1="423.21" x2="750.83" y2="424.25"/>
        <line class="cls-7" x1="723.33" y1="442.81" x2="749.35" y2="445.45"/>
        <line class="cls-7" x1="720.79" y1="462.05" x2="746.59" y2="466.29"/>
        <line class="cls-7" x1="717.11" y1="480.91" x2="742.61" y2="486.71"/>
        <line class="cls-7" x1="712.34" y1="499.35" x2="737.43" y2="506.69"/>
        <line class="cls-7" x1="706.49" y1="517.32" x2="731.1" y2="526.17"/>
        <line class="cls-7" x1="699.63" y1="534.81" x2="723.66" y2="545.11"/>
        <line class="cls-7" x1="691.76" y1="551.77" x2="715.14" y2="563.48"/>
        <line class="cls-7" x1="682.95" y1="568.16" x2="705.59" y2="581.24"/>
      </g>
      <path class="cls-1" d="M113.7,410.87c0-54.13,14.48-104.87,39.77-148.59l-16.45-9.5c-26.9,46.5-42.31,100.49-42.31,158.08s15.4,111.58,42.31,158.08l16.45-9.5c-25.29-43.71-39.77-94.46-39.77-148.59Z"/>
      <path class="cls-12" d="M684.74,252.79l-16.45,9.5c25.29,43.71,39.77,94.46,39.77,148.59s-14.48,104.87-39.77,148.59l16.45,9.5c26.9-46.5,42.31-100.49,42.31-158.08s-15.4-111.58-42.31-158.08Z"/>
      <path class="cls-11" d="M137.01,252.79l16.45,9.5c51.38-88.82,147.41-148.59,257.41-148.59v-18.99c-117.03,0-219.19,63.58-273.86,158.09Z"/>
      <path class="cls-10" d="M410.87,94.71h0v18.99h0c110,0,206.03,59.76,257.41,148.59l16.45-9.5c-54.67-94.5-156.84-158.09-273.86-158.09Z"/>
      <path class="cls-5" d="M151.4,560.76c-25.5-44.12-40.09-95.34-40.09-149.97,0-165.65,134.17-299.93,299.68-299.93s299.68,134.28,299.68,299.93c0,54.71-14.63,106-40.2,150.15"/>
      <circle class="cls-9" cx="410.87" cy="410.87" r="1.2"/>
      <g>
        <g>
          <path class="cls-13" d="M403.35,131.99h-6.55l-.36,2.6c.36-.05.68-.05,1.09-.05,1.61,0,3.25.36,4.44,1.22,1.27.86,2.05,2.26,2.05,4.24,0,3.14-2.7,5.92-7.25,5.92-2.05,0-3.77-.47-4.7-.96l.7-2.96c.75.36,2.29.83,3.82.83,1.64,0,3.38-.78,3.38-2.57s-1.38-2.81-4.76-2.81c-.94,0-1.58.05-2.29.16l1.12-8.86h9.3v3.25Z"/>
          <path class="cls-13" d="M418.97,137.11c0,5.22-2.1,8.81-6.42,8.81s-6.29-3.92-6.32-8.71c0-4.89,2.08-8.76,6.45-8.76s6.29,4.03,6.29,8.65ZM410.21,137.21c-.03,3.87.91,5.72,2.44,5.72s2.36-1.92,2.36-5.77-.8-5.72-2.39-5.72c-1.46,0-2.44,1.84-2.42,5.77Z"/>
          <path class="cls-13" d="M429.81,133.47c0,3.53-2.23,5.38-4.68,5.38-2.57,0-4.6-1.92-4.6-5.09s1.85-5.3,4.73-5.3,4.55,2.13,4.55,5.02ZM423.46,133.65c0,1.77.6,3.04,1.74,3.04s1.66-1.14,1.66-3.04c0-1.71-.47-3.04-1.69-3.04s-1.72,1.35-1.72,3.04ZM425.34,145.91l9.69-17.46h2.13l-9.72,17.46h-2.11ZM441.97,140.48c0,3.53-2.23,5.38-4.68,5.38s-4.57-1.92-4.6-5.09c0-3.01,1.84-5.3,4.73-5.3s4.55,2.13,4.55,5.02ZM435.65,140.67c-.03,1.77.57,3.04,1.71,3.04s1.66-1.14,1.66-3.04c0-1.71-.44-3.04-1.66-3.04s-1.71,1.35-1.71,3.04Z"/>
        </g>
        <g>
          <path class="cls-13" d="M612.38,266.18v2.49l-6.96,14.4h-4.18l6.96-13.59v-.05h-7.74v-3.25h11.93Z"/>
          <path class="cls-13" d="M625.97,269.42h-6.55l-.36,2.6c.36-.05.68-.05,1.09-.05,1.61,0,3.25.36,4.44,1.22,1.27.86,2.05,2.26,2.05,4.24,0,3.14-2.7,5.92-7.25,5.92-2.05,0-3.77-.47-4.7-.96l.7-2.96c.75.36,2.29.83,3.82.83,1.64,0,3.38-.78,3.38-2.57s-1.38-2.81-4.76-2.81c-.94,0-1.58.05-2.29.16l1.12-8.86h9.3v3.25Z"/>
          <path class="cls-13" d="M638,270.91c0,3.53-2.23,5.38-4.68,5.38-2.57,0-4.6-1.92-4.6-5.09s1.85-5.3,4.73-5.3,4.55,2.13,4.55,5.02ZM631.66,271.09c0,1.77.6,3.04,1.74,3.04s1.66-1.14,1.66-3.04c0-1.71-.47-3.04-1.69-3.04s-1.72,1.35-1.72,3.04ZM633.53,283.35l9.69-17.46h2.13l-9.72,17.46h-2.11ZM650.16,277.92c0,3.53-2.23,5.38-4.68,5.38s-4.57-1.92-4.6-5.09c0-3.01,1.84-5.3,4.73-5.3s4.55,2.13,4.55,5.02ZM643.85,278.1c-.03,1.77.57,3.04,1.71,3.04s1.66-1.14,1.66-3.04c0-1.71-.44-3.04-1.66-3.04s-1.71,1.35-1.71,3.04Z"/>
        </g>
        <g>
          <path class="cls-13" d="M164.11,280.84v-2.39l2.18-1.98c3.69-3.3,5.48-5.2,5.54-7.17,0-1.38-.83-2.47-2.78-2.47-1.46,0-2.73.73-3.61,1.4l-1.12-2.83c1.27-.96,3.25-1.74,5.54-1.74,3.82,0,5.92,2.23,5.92,5.3,0,2.83-2.05,5.09-4.5,7.28l-1.56,1.3v.05h6.37v3.25h-11.98Z"/>
          <path class="cls-13" d="M189.81,267.2h-6.55l-.36,2.6c.36-.05.68-.05,1.09-.05,1.61,0,3.25.36,4.44,1.22,1.27.86,2.05,2.26,2.05,4.24,0,3.14-2.7,5.92-7.25,5.92-2.05,0-3.77-.47-4.7-.96l.7-2.96c.75.36,2.29.83,3.82.83,1.64,0,3.38-.78,3.38-2.57s-1.38-2.81-4.76-2.81c-.94,0-1.58.05-2.29.16l1.12-8.86h9.3v3.25Z"/>
          <path class="cls-13" d="M201.84,268.68c0,3.53-2.23,5.38-4.68,5.38-2.57,0-4.6-1.92-4.6-5.09s1.85-5.3,4.73-5.3,4.55,2.13,4.55,5.02ZM195.5,268.86c0,1.77.6,3.04,1.74,3.04s1.66-1.14,1.66-3.04c0-1.71-.47-3.04-1.69-3.04s-1.72,1.35-1.72,3.04ZM197.37,281.13l9.69-17.46h2.13l-9.72,17.46h-2.11ZM214,275.69c0,3.53-2.23,5.38-4.68,5.38s-4.57-1.92-4.6-5.09c0-3.01,1.84-5.3,4.73-5.3s4.55,2.13,4.55,5.02ZM207.69,275.88c-.03,1.77.57,3.04,1.71,3.04s1.66-1.14,1.66-3.04c0-1.71-.44-3.04-1.66-3.04s-1.71,1.35-1.71,3.04Z"/>
        </g>
        <g>
          <path class="cls-13" d="M598.73,536.7h-.05l-3.22,1.53-.65-2.96,4.47-2.08h3.27v16.89h-3.82v-13.38Z"/>
          <path class="cls-13" d="M620.58,541.56c0,5.22-2.1,8.81-6.42,8.81s-6.29-3.92-6.32-8.71c0-4.89,2.08-8.76,6.45-8.76s6.29,4.03,6.29,8.65ZM611.83,541.66c-.03,3.87.91,5.72,2.44,5.72s2.36-1.92,2.36-5.77-.8-5.72-2.39-5.72c-1.46,0-2.44,1.84-2.42,5.77Z"/>
          <path class="cls-13" d="M635.01,541.56c0,5.22-2.1,8.81-6.42,8.81s-6.29-3.92-6.31-8.71c0-4.89,2.08-8.76,6.44-8.76s6.29,4.03,6.29,8.65ZM626.25,541.66c-.03,3.87.91,5.72,2.44,5.72s2.36-1.92,2.36-5.77-.8-5.72-2.39-5.72c-1.46,0-2.44,1.84-2.42,5.77Z"/>
          <path class="cls-13" d="M645.84,537.92c0,3.53-2.23,5.38-4.68,5.38-2.57,0-4.6-1.92-4.6-5.09s1.85-5.3,4.73-5.3,4.55,2.13,4.55,5.02ZM639.5,538.1c0,1.77.6,3.04,1.74,3.04s1.66-1.14,1.66-3.04c0-1.71-.47-3.04-1.69-3.04s-1.72,1.35-1.72,3.04ZM641.37,550.37l9.69-17.46h2.13l-9.72,17.46h-2.11ZM658.01,544.94c0,3.53-2.23,5.38-4.68,5.38s-4.57-1.92-4.6-5.09c0-3.01,1.84-5.3,4.73-5.3s4.55,2.13,4.55,5.02ZM651.69,545.12c-.03,1.77.57,3.04,1.71,3.04s1.66-1.14,1.66-3.04c0-1.71-.44-3.04-1.66-3.04s-1.71,1.35-1.71,3.04Z"/>
        </g>
        <g>
          <path class="cls-13" d="M176.58,547.42c0,5.22-2.1,8.81-6.42,8.81s-6.29-3.92-6.32-8.71c0-4.89,2.08-8.76,6.45-8.76s6.29,4.03,6.29,8.65ZM167.82,547.52c-.03,3.87.91,5.72,2.44,5.72s2.36-1.92,2.36-5.77-.8-5.72-2.39-5.72c-1.46,0-2.44,1.84-2.42,5.77Z"/>
          <path class="cls-13" d="M187.42,543.78c0,3.53-2.23,5.38-4.68,5.38-2.57,0-4.6-1.92-4.6-5.09s1.85-5.3,4.73-5.3,4.55,2.13,4.55,5.02ZM181.08,543.96c0,1.77.6,3.04,1.74,3.04s1.66-1.14,1.66-3.04c0-1.71-.47-3.04-1.69-3.04s-1.72,1.35-1.72,3.04ZM182.95,556.23l9.69-17.46h2.13l-9.72,17.46h-2.11ZM199.58,550.79c0,3.53-2.23,5.38-4.68,5.38s-4.57-1.92-4.6-5.09c0-3.01,1.84-5.3,4.73-5.3s4.55,2.13,4.55,5.02ZM193.26,550.98c-.03,1.77.57,3.04,1.71,3.04s1.66-1.14,1.66-3.04c0-1.71-.44-3.04-1.66-3.04s-1.71,1.35-1.71,3.04Z"/>
        </g>
      </g>
      <g>
        <path class="cls-2" d="M725.44,579.73v2.49l-6.96,14.4h-4.18l6.96-13.59v-.05h-7.74v-3.25h11.93Z"/>
        <path class="cls-2" d="M740.23,588.09c0,5.22-2.1,8.81-6.42,8.81s-6.29-3.92-6.32-8.71c0-4.89,2.08-8.76,6.45-8.76s6.29,4.03,6.29,8.65ZM731.47,588.2c-.03,3.87.91,5.72,2.44,5.72s2.36-1.92,2.36-5.77-.8-5.72-2.39-5.72c-1.46,0-2.44,1.84-2.42,5.77Z"/>
        <path class="cls-2" d="M754.65,588.09c0,5.22-2.1,8.81-6.42,8.81s-6.29-3.92-6.31-8.71c0-4.89,2.08-8.76,6.44-8.76s6.29,4.03,6.29,8.65ZM745.9,588.2c-.03,3.87.91,5.72,2.44,5.72s2.36-1.92,2.36-5.77-.8-5.72-2.39-5.72c-1.46,0-2.44,1.84-2.42,5.77Z"/>
      </g>
      <path class="cls-2" d="M105.67,588.09c0,5.22-2.1,8.81-6.42,8.81s-6.29-3.92-6.31-8.71c0-4.89,2.08-8.76,6.44-8.76s6.29,4.03,6.29,8.65ZM96.91,588.2c-.03,3.87.91,5.72,2.44,5.72s2.36-1.92,2.36-5.77-.8-5.72-2.39-5.72c-1.46,0-2.44,1.84-2.42,5.77Z"/>
      <g>
        <path class="cls-8" d="M392.88,44.2c.7.36,2.31,1.04,3.92,1.04,2.05,0,3.09-.99,3.09-2.26,0-1.66-1.66-2.42-3.4-2.42h-1.61v-2.83h1.53c1.33-.03,3.01-.52,3.01-1.95,0-1.01-.83-1.77-2.5-1.77-1.38,0-2.83.6-3.53,1.01l-.81-2.86c1.01-.65,3.04-1.27,5.22-1.27,3.61,0,5.61,1.9,5.61,4.21,0,1.79-1.01,3.2-3.09,3.92v.05c2.03.36,3.66,1.9,3.66,4.11,0,2.99-2.62,5.17-6.91,5.17-2.18,0-4.03-.57-5.02-1.2l.81-2.96Z"/>
        <path class="cls-8" d="M417.88,34.43h-6.55l-.36,2.6c.36-.05.68-.05,1.09-.05,1.61,0,3.25.36,4.44,1.22,1.27.86,2.05,2.26,2.05,4.24,0,3.14-2.7,5.92-7.25,5.92-2.05,0-3.77-.47-4.7-.96l.7-2.96c.75.36,2.29.83,3.82.83,1.64,0,3.38-.78,3.38-2.57s-1.38-2.81-4.76-2.81c-.94,0-1.58.05-2.29.16l1.12-8.86h9.3v3.25Z"/>
        <path class="cls-8" d="M433.5,39.55c0,5.22-2.1,8.81-6.42,8.81s-6.29-3.92-6.32-8.71c0-4.89,2.08-8.76,6.45-8.76s6.29,4.03,6.29,8.65ZM424.74,39.65c-.03,3.87.91,5.72,2.44,5.72s2.36-1.92,2.36-5.77-.8-5.72-2.39-5.72c-1.46,0-2.44,1.84-2.42,5.77Z"/>
      </g>
      <g>
        <path class="cls-8" d="M73.12,222.63h-.05l-3.22,1.53-.65-2.96,4.47-2.08h3.27v16.89h-3.82v-13.38Z"/>
        <path class="cls-8" d="M94.61,219.12v2.49l-6.96,14.4h-4.18l6.96-13.59v-.05h-7.74v-3.25h11.93Z"/>
        <path class="cls-8" d="M108.2,222.37h-6.55l-.36,2.6c.36-.05.68-.05,1.09-.05,1.61,0,3.25.36,4.44,1.22,1.27.86,2.05,2.26,2.05,4.24,0,3.14-2.7,5.92-7.25,5.92-2.05,0-3.77-.47-4.7-.96l.7-2.96c.75.36,2.29.83,3.82.83,1.64,0,3.38-.78,3.38-2.57s-1.38-2.81-4.76-2.81c-.94,0-1.58.05-2.29.16l1.12-8.86h9.3v3.25Z"/>
      </g>
      <g>
        <path class="cls-2" d="M24.52,370.26h-.05l-2.94,1.58-.44-1.74,3.69-1.97h1.95v16.89h-2.21v-14.76Z"/>
        <path class="cls-2" d="M44.12,376.39c0,5.74-2.13,8.91-5.87,8.91-3.3,0-5.54-3.09-5.59-8.68,0-5.66,2.44-8.78,5.87-8.78s5.59,3.17,5.59,8.55ZM34.94,376.65c0,4.39,1.35,6.89,3.43,6.89,2.34,0,3.46-2.73,3.46-7.04s-1.07-6.89-3.43-6.89c-2,0-3.46,2.44-3.46,7.04Z"/>
        <path class="cls-2" d="M57.45,376.39c0,5.74-2.13,8.91-5.87,8.91-3.3,0-5.54-3.09-5.59-8.68,0-5.66,2.44-8.78,5.87-8.78s5.59,3.17,5.59,8.55ZM48.28,376.65c0,4.39,1.35,6.89,3.43,6.89,2.34,0,3.46-2.73,3.46-7.04s-1.07-6.89-3.43-6.89c-2,0-3.46,2.44-3.46,7.04Z"/>
      </g>
      <g>
        <path class="cls-2" d="M104.93,182.18v-1.4l1.79-1.74c4.31-4.11,6.26-6.29,6.29-8.84,0-1.71-.83-3.3-3.35-3.3-1.53,0-2.81.78-3.59,1.43l-.73-1.61c1.17-.99,2.83-1.72,4.78-1.72,3.64,0,5.17,2.49,5.17,4.91,0,3.12-2.26,5.64-5.82,9.07l-1.35,1.25v.05h7.59v1.9h-10.78Z"/>
        <path class="cls-2" d="M129.49,173.55c0,5.74-2.13,8.91-5.87,8.91-3.3,0-5.54-3.09-5.59-8.68,0-5.66,2.44-8.78,5.87-8.78s5.59,3.17,5.59,8.55ZM120.32,173.81c0,4.39,1.35,6.89,3.43,6.89,2.34,0,3.46-2.73,3.46-7.04s-1.07-6.89-3.43-6.89c-2,0-3.46,2.44-3.46,7.04Z"/>
        <path class="cls-2" d="M142.82,173.55c0,5.74-2.13,8.91-5.87,8.91-3.3,0-5.54-3.09-5.59-8.68,0-5.66,2.44-8.78,5.87-8.78s5.59,3.17,5.59,8.55ZM133.65,173.81c0,4.39,1.35,6.89,3.43,6.89,2.34,0,3.46-2.73,3.46-7.04s-1.07-6.89-3.43-6.89c-2,0-3.46,2.44-3.46,7.04Z"/>
      </g>
      <g>
        <path class="cls-2" d="M291.15,65.92c.65.42,2.16,1.07,3.74,1.07,2.94,0,3.85-1.87,3.82-3.27-.03-2.36-2.16-3.38-4.37-3.38h-1.27v-1.72h1.27c1.66,0,3.77-.86,3.77-2.86,0-1.35-.86-2.55-2.96-2.55-1.35,0-2.65.6-3.38,1.12l-.6-1.66c.88-.65,2.6-1.3,4.42-1.3,3.33,0,4.83,1.98,4.83,4.03,0,1.74-1.04,3.22-3.12,3.98v.05c2.08.42,3.77,1.98,3.77,4.34,0,2.7-2.1,5.07-6.16,5.07-1.9,0-3.56-.6-4.39-1.14l.62-1.77Z"/>
        <path class="cls-2" d="M315.17,59.92c0,5.74-2.13,8.91-5.87,8.91-3.3,0-5.54-3.09-5.59-8.68,0-5.66,2.44-8.78,5.87-8.78s5.59,3.17,5.59,8.55ZM305.99,60.18c0,4.39,1.35,6.89,3.43,6.89,2.34,0,3.46-2.73,3.46-7.04s-1.07-6.89-3.43-6.89c-2,0-3.46,2.44-3.46,7.04Z"/>
        <path class="cls-2" d="M328.5,59.92c0,5.74-2.13,8.91-5.87,8.91-3.3,0-5.54-3.09-5.59-8.68,0-5.66,2.44-8.78,5.87-8.78s5.59,3.17,5.59,8.55ZM319.32,60.18c0,4.39,1.35,6.89,3.43,6.89,2.34,0,3.46-2.73,3.46-7.04s-1.07-6.89-3.43-6.89c-2,0-3.46,2.44-3.46,7.04Z"/>
      </g>
      <g>
        <path class="cls-2" d="M506.76,70.96v-4.6h-7.85v-1.51l7.54-10.78h2.47v10.5h2.36v1.79h-2.36v4.6h-2.16ZM506.76,64.57v-5.64c0-.88.03-1.77.08-2.65h-.08c-.52.99-.94,1.72-1.4,2.49l-4.13,5.74v.05h5.54Z"/>
        <path class="cls-2" d="M524.25,62.33c0,5.74-2.13,8.91-5.87,8.91-3.3,0-5.54-3.09-5.59-8.68,0-5.66,2.44-8.78,5.87-8.78s5.59,3.17,5.59,8.55ZM515.08,62.59c0,4.39,1.35,6.89,3.43,6.89,2.34,0,3.46-2.73,3.46-7.04s-1.07-6.89-3.43-6.89c-2,0-3.46,2.44-3.46,7.04Z"/>
        <path class="cls-2" d="M537.58,62.33c0,5.74-2.13,8.91-5.87,8.91-3.3,0-5.54-3.09-5.59-8.68,0-5.66,2.44-8.78,5.87-8.78s5.59,3.17,5.59,8.55ZM528.41,62.59c0,4.39,1.35,6.89,3.43,6.89,2.34,0,3.46-2.73,3.46-7.04s-1.07-6.89-3.43-6.89c-2,0-3.46,2.44-3.46,7.04Z"/>
      </g>
      <g>
        <path class="cls-2" d="M694.8,171.58h-6.44l-.65,4.34c.39-.05.75-.1,1.38-.1,1.3,0,2.6.29,3.64.91,1.33.75,2.42,2.21,2.42,4.34,0,3.3-2.62,5.77-6.29,5.77-1.84,0-3.4-.52-4.21-1.04l.57-1.74c.7.42,2.08.94,3.61.94,2.16,0,4-1.4,4-3.66-.03-2.18-1.48-3.74-4.86-3.74-.96,0-1.72.1-2.34.18l1.09-8.11h8.08v1.92Z"/>
        <path class="cls-2" d="M709.27,177.92c0,5.74-2.13,8.91-5.87,8.91-3.3,0-5.54-3.09-5.59-8.68,0-5.66,2.44-8.78,5.87-8.78s5.59,3.17,5.59,8.55ZM700.1,178.18c0,4.39,1.35,6.89,3.43,6.89,2.34,0,3.46-2.73,3.46-7.04s-1.07-6.89-3.43-6.89c-2,0-3.46,2.44-3.46,7.04Z"/>
        <path class="cls-2" d="M722.61,177.92c0,5.74-2.13,8.91-5.87,8.91-3.3,0-5.54-3.09-5.59-8.68,0-5.66,2.44-8.78,5.87-8.78s5.59,3.17,5.59,8.55ZM713.43,178.18c0,4.39,1.35,6.89,3.43,6.89,2.34,0,3.46-2.73,3.46-7.04s-1.07-6.89-3.43-6.89c-2,0-3.46,2.44-3.46,7.04Z"/>
      </g>
      <g>
        <path class="cls-2" d="M774.17,369.74c-.47-.03-1.07,0-1.72.1-3.59.6-5.48,3.22-5.87,6h.08c.81-1.07,2.21-1.95,4.08-1.95,2.99,0,5.09,2.16,5.09,5.46,0,3.09-2.1,5.95-5.61,5.95s-5.98-2.81-5.98-7.2c0-3.33,1.2-5.95,2.86-7.61,1.4-1.38,3.27-2.23,5.4-2.49.68-.1,1.25-.13,1.66-.13v1.87ZM773.52,379.48c0-2.42-1.38-3.87-3.48-3.87-1.38,0-2.65.86-3.27,2.08-.16.26-.26.6-.26,1.01.05,2.78,1.33,4.83,3.72,4.83,1.97,0,3.3-1.64,3.3-4.05Z"/>
        <path class="cls-2" d="M789.09,376.39c0,5.74-2.13,8.91-5.87,8.91-3.3,0-5.54-3.09-5.59-8.68,0-5.66,2.44-8.78,5.87-8.78s5.59,3.17,5.59,8.55ZM779.92,376.65c0,4.39,1.35,6.89,3.43,6.89,2.34,0,3.46-2.73,3.46-7.04s-1.07-6.89-3.43-6.89c-2,0-3.46,2.44-3.46,7.04Z"/>
        <path class="cls-2" d="M802.42,376.39c0,5.74-2.13,8.91-5.87,8.91-3.3,0-5.54-3.09-5.59-8.68,0-5.66,2.44-8.78,5.87-8.78s5.59,3.17,5.59,8.55ZM793.25,376.65c0,4.39,1.35,6.89,3.43,6.89,2.34,0,3.46-2.73,3.46-7.04s-1.07-6.89-3.43-6.89c-2,0-3.46,2.44-3.46,7.04Z"/>
      </g>
      <g>
        <path class="cls-8" d="M728.11,222.37h-6.55l-.36,2.6c.36-.05.68-.05,1.09-.05,1.61,0,3.25.36,4.44,1.22,1.27.86,2.05,2.26,2.05,4.24,0,3.14-2.7,5.92-7.25,5.92-2.05,0-3.77-.47-4.7-.96l.7-2.96c.75.36,2.29.83,3.82.83,1.64,0,3.38-.78,3.38-2.57s-1.38-2.81-4.76-2.81c-.94,0-1.58.05-2.29.16l1.12-8.86h9.3v3.25Z"/>
        <path class="cls-8" d="M731.26,236.01v-2.39l2.18-1.98c3.69-3.3,5.48-5.2,5.54-7.17,0-1.38-.83-2.47-2.78-2.47-1.46,0-2.73.73-3.61,1.4l-1.12-2.83c1.27-.96,3.25-1.74,5.54-1.74,3.82,0,5.92,2.23,5.92,5.3,0,2.83-2.05,5.09-4.5,7.28l-1.56,1.3v.05h6.37v3.25h-11.98Z"/>
        <path class="cls-8" d="M756.96,222.37h-6.55l-.36,2.6c.36-.05.68-.05,1.09-.05,1.61,0,3.25.36,4.44,1.22,1.27.86,2.05,2.26,2.05,4.24,0,3.14-2.7,5.92-7.25,5.92-2.05,0-3.77-.47-4.7-.96l.7-2.96c.75.36,2.29.83,3.82.83,1.64,0,3.38-.78,3.38-2.57s-1.38-2.81-4.76-2.81c-.94,0-1.58.05-2.29.16l1.12-8.86h9.3v3.25Z"/>
      </g>
      <line class="cls-6" x1="410.87" y1="635.64" x2="410.87" y2="774.7"/>
    </g>
  </g>
</svg>